<svg viewBox="0 0 512 512" xmlns="http://www.w3.org/2000/svg"><g fill="#c3cfd8"><path d="M69 117.2c49.9-13.6 89.5-13.6 139.4 0l5.2-20.9c-54.1-14.6-97.8-14.6-150.9 0zM63.8 171.5l5.2 19.8c49.9-13.6 89.5-13.6 139.4 0l6.2-19.8c-54-14.6-97.7-14.6-150.8 0zM63.8 245.5l5.2 19.8c49.9-13.6 89.5-13.6 139.4 0l6.2-19.8c-54-14.6-97.7-14.6-150.8 0zM62.8 319.5l6.2 19.8c49.9-13.6 89.5-13.6 139.4 0l5.2-19.8c-54-14.6-97.7-14.6-150.8 0zM296.9 96.4l6.2 20.9c49.9-13.6 89.5-13.6 139.4 0l5.2-20.9c-54.1-14.6-97.8-14.6-150.8 0zM296.9 170.4l5.2 20.9c51-13.6 89.5-13.6 140.4 0l5.2-20.9c-54.1-14.6-97.8-14.6-150.8 0zM296.9 244.4l6.2 20.9c49.9-13.6 89.5-13.6 139.4 0l5.2-20.9c-54.1-14.6-97.8-14.6-150.8 0z"/><path d="M493.5 38c-48.9-17.7-85.3-25-120.7-25-34.5 0-70 6.9-117 23.7-47.1-16.8-82.6-23.7-117-23.7-35.4 0-71.8 7.3-120.7 25-4.2 1-7.3 5.2-7.3 9.4v371.1c0 9.9 10.4 10.4 13.5 9.4 45.8-16.7 80.1-24 113.4-24s66.6 7.3 113.4 24c3.2.8 5.6.5 7.4-.2 11.5-4.1 31.7-10.7 45-14.8 3.1 5 6.8 9.7 11.1 14 27.9 27.9 71.5 30.3 102.1 7.2l64.8 64.9 14.7-14.7-64.7-64.9c2-2.6 3.8-5.2 5.4-8 15.7 4.7 36.4 11.6 50.4 16.5 3.1 1 13.5 1 13.5-9.4V47.4c0-4.2-3.1-8.4-7.3-9.4zM244.9 403.9C202.2 389.3 170 383 137.7 383s-65.5 6.3-107.2 20.9V54.7c42.7-15.7 75-21.9 107.2-21.9s64.5 6.3 107.2 21.9zm84.4 8.3c-22.3-22.4-22.3-58.7 0-81.1s58.6-22.4 80.9 0 22.3 58.7 0 81.1c-22.4 22.4-58.6 22.4-80.9 0zm150.7-8.3c-8.7-2.9-24.1-7.6-35.2-11 7.4-26.4.8-55.9-19.9-76.6-30.5-30.5-79.9-30.5-110.3 0-21.1 21.1-27.6 51.3-19.5 78-8.7 2.8-21.6 6.9-30.4 9.7V55c44-17.1 78.2-22.3 109.2-22.3 31.2 0 63.5 6.3 106.1 21.9z"/></g></svg>