<svg viewBox="0 0 1000 1000" xmlns="http://www.w3.org/2000/svg"><path d="M500 10C229.4 10 10 235.1 10 512.5c0 222 140.4 410.2 335.1 476.7 3.1.7 5.7.9 8.3.9 18.2 0 25.2-13.3 25.2-24.9 0-12-.4-43.5-.7-85.5-18.4 4.2-34.8 5.9-49.4 5.9-94.3 0-115.7-73.3-115.7-73.3-22.3-58-54.5-73.5-54.5-73.5-42.7-30-.2-30.8 3.1-30.8h.2c49.2 4.4 75 52.1 75 52.1 24.5 42.9 57.3 54.9 86.6 54.9 23 0 43.8-7.4 56-13.1 4.4-32.4 17.1-54.5 31.1-67.2-108.7-12.7-223.1-55.8-223.1-248.3 0-54.9 19-99.8 50.3-134.8-5-12.7-21.9-63.9 4.8-133 0 0 3.5-1.1 10.9-1.1 17.7 0 57.8 6.8 123.8 52.7 39.2-11.2 80.9-16.6 122.7-16.8 41.6.2 83.6 5.7 122.7 16.8 66.1-45.9 106.1-52.7 123.8-52.7 7.4 0 10.9 1.1 10.9 1.1 26.7 69.1 9.8 120.3 4.8 133 31.3 35.2 50.3 80.1 50.3 134.8 0 192.9-114.6 235.4-223.8 247.8 17.5 15.5 33.3 46.2 33.3 93 0 67.2-.7 121.4-.7 137.8 0 11.8 6.8 25.2 24.9 25.2 2.6 0 5.7-.2 8.8-.9C849.8 922.6 990 734.3 990 512.5 990 235.1 770.6 10 500 10zM328.5 920.2c4.8 0 9.6-.2 14.7-.4 0 6.1 0 12 .2 17.3 0 5.3 0 10.1.2 14.2-34.1-12.7-66.3-29.5-96.5-50.3 21.5 11.6 48.4 19.2 81.4 19.2zm24.9-159.4c-1.7 4.8-3.3 9.8-4.6 15.1-7.4 2.2-16.4 3.9-25.6 3.9-23.8 0-41.6-11.8-56-37-5.3-10.1-14.9-23.4-28.2-35.7 36.8 30.9 79.4 45.8 114.4 53.7zm415.7 128.8c-34.6 26-72.2 46.6-111.6 61.7v-14.2-110.3c0-27.1-4.6-49.2-10.9-66.7 81.4-18.2 201.3-73.7 201.3-274.3 0-53.8-15.5-101.7-46.4-142.4 6.8-28.2 12-77.9-11.2-137.8l-5.9-15.5-15.8-5.3c-3.3-1.1-10.5-2.8-21.9-2.8-25.2 0-67.6 9-130.2 49.9-37.2-9.2-76.1-14-116.2-14h-.5c-40 0-79.2 4.8-116.2 14C321 191 278.6 182 253.4 182c-11.4 0-18.6 2-21.9 3.1l-15.8 5.3-5.9 15.5c-23.2 60.2-17.9 109.8-11.2 137.8-30.8 40.9-46.4 88.8-46.4 142.4 0 108.5 35 174.8 80.1 215.5-17.5-14.6-40.5-26.6-68.1-28.6H161.3c-28.7 0-48.8 11.8-55.1 32.2-10.3 32.4 21.4 54.7 31.9 62.1l1.1 1.3 3.3 1.3c3.5 2.2 22.1 15.3 37 53.6 4.4 13.6 13.8 31.7 29.8 48.6-28.7-24.5-54.3-52.5-76.3-83.3-57.6-80.5-88-176.1-88-276.3 0-63.2 12-124.5 35.9-182.2 23-55.8 55.8-105.7 97.8-148.5 41.8-42.9 90.6-76.6 144.6-100C379.2 57.5 438.8 45 500 45s120.8 12.3 176.8 36.5c54.3 23.4 102.8 57.1 144.6 100s74.8 93 97.8 148.5C943 387.8 955 449 955 512.3c0 100.2-30.2 195.8-87.7 276.3-27.6 38.7-60.6 72.6-98.2 101z" fill="#fff"/></svg>