<svg viewBox="0 0 64.017 64.017" xmlns="http://www.w3.org/2000/svg"><path d="M63.429 21.988l-1.41-1.41a1.995 1.995 0 00-2.821 0L48.021 31.755V2.017a2 2 0 00-2-2h-30c-.679 0-1.353-.12-1.751.278L.299 14.266c-.398.398-.278 1.009-.278 1.751v46a2 2 0 002 2h44a2 2 0 002-2v-21.8l15.408-15.408a1.995 1.995 0 000-2.821zM14.021 3.426v10.591H3.43zm32 58.591h-44v-46h13a1 1 0 001-1v-13h30v31.738l-8.45 8.45a.97.97 0 00-.55-.187h-26a1 1 0 000 2h24.738l-6.009 6.009a.92.92 0 00-.785.709l-.839 3.669a1.002 1.002 0 00-.077.789c.029.096.085.177.137.259.008.014.013.027.021.04.046.068.1.124.159.18.056.058.112.112.18.158l.041.022c.083.052.163.107.259.137.283.087.563.05.788-.077l3.669-.839a.924.924 0 00.719-.857l12-12v19.8zm-13.75-8.872l-1.788.409.427-1.869 29.697-29.697 1.41 1.41zM11.02 24.017h26a1 1 0 000-2h-26a1 1 0 000 2zm0 10h26a1 1 0 000-2h-26a1 1 0 000 2z" fill="#c3cfd8"/></svg>