<svg width="45" height="47" viewBox="0 0 45 47" xmlns="http://www.w3.org/2000/svg" xmlns:xlink="http://www.w3.org/1999/xlink"><use xlink:href="#path0_fill" transform="matrix(.96295 -.26967 .31362 .94955 -5.016 34.329)" fill="#445C6C"/><use xlink:href="#path1_fill" transform="matrix(.96942 -.24542 .2897 .95712 -1.075 34.652)" fill="#FFF"/><use xlink:href="#path2_fill" transform="rotate(-45 39.792 12.92)" fill="#445C6C"/><g transform="translate(-207 282)"><use xlink:href="#path3_fill" transform="rotate(-45 -215.698 -422.824)" fill="#445C6C"/>a</g><use xlink:href="#path4_stroke" transform="rotate(-45 45.956 11.964)" fill="#FFF"/><use xlink:href="#path4_stroke" transform="rotate(-45 54.491 8.429)" fill="#FFF"/><defs><path id="path0_fill" d="M8.049 0l6.97 12.8H1.08L8.048 0z"/><path id="path1_fill" d="M5.547 0l4.803 9.36H.743L5.547 0z"/><path id="path2_fill" d="M0 0h34v15.306H0V0z"/><path id="path3_fill" d="M0 0h5.78a4 4 0 014 4v7.31a4 4 0 01-4 4H0V0z"/><path id="path4_stroke" d="M0 0h35.355v-1H0v1z"/></defs></svg>