<svg viewBox="0 0 491.52 491.52" xmlns="http://www.w3.org/2000/svg"><g fill="#c3cfd8"><path d="M0 0v491.52h491.52V0zm471.04 471.04H20.48V102.4h450.56zm0-389.12H20.48V20.48h450.56z"/><path d="M430.08 40.96h20.48v20.48h-20.48zM389.12 40.96h20.48v20.48h-20.48zM348.16 40.96h20.48v20.48h-20.48zM51.2 40.96h245.76v20.48H51.2zM334.92 197.56l-14.48 14.48 64.44 64.44-64.44 64.44 14.48 14.48 78.92-78.92zM171.08 212.04l-14.48-14.48-78.92 78.92 78.92 78.92 14.48-14.48-64.44-64.44zM185.131 395.505l92.105-225.321 18.959 7.75-92.105 225.32z"/></g></svg>