<svg viewBox="0 0 30.609 30.609" xmlns="http://www.w3.org/2000/svg"><g fill="#c3cfd8"><path d="M5.043 29.233a.876.876 0 01-.875-.875v-4.765H.875A.875.875 0 010 22.719V6.145c0-.482.393-.875.875-.875h3.848c.483 0 .875.393.875.875v11.812l12.675.114a.873.873 0 01.605.251l3.819 3.771a.876.876 0 01-.614 1.497l-9.819.002-6.669 5.442a.859.859 0 01-.552.199zM1.75 21.844h3.293c.483 0 .875.392.875.875v3.797l5.483-4.475a.882.882 0 01.553-.197l8-.002-2.053-2.025-13.187-.119a.875.875 0 01-.866-.875V7.02H1.75z"/><path d="M25.216 26.68a.872.872 0 01-.614-.252l-6.7-6.612-13.188-.119a.873.873 0 01-.866-.874V2.251c0-.483.392-.875.875-.875h25.011c.483 0 .875.392.875.875v16.572a.875.875 0 01-.875.875H26.09v6.107a.874.874 0 01-.874.875zM5.598 17.957l12.675.114a.873.873 0 01.605.251l5.463 5.392v-4.891c0-.483.392-.875.875-.875h3.644V3.125H5.598z"/></g></svg>