<svg viewBox="0 0 60 60" xmlns="http://www.w3.org/2000/svg"><g fill="#c3cfd8"><path d="M27 15.984h6a1 1 0 100-2h-6a1 1 0 100 2zM42 29.984h-6a1 1 0 100 2h6a1 1 0 100-2zM18 23.984h5a1 1 0 100-2h-5a1 1 0 100 2zM30 22.984a1 1 0 001 1h7a1 1 0 100-2h-7a1 1 0 00-1 1zM27 23.984c.27 0 .52-.11.71-.29.18-.19.29-.45.29-.71s-.11-.521-.29-.71c-.38-.37-1.04-.37-1.42 0-.181.189-.29.45-.29.71s.109.52.29.71c.189.179.45.29.71.29zM32 29.984H22a1 1 0 100 2h10a1 1 0 100-2zM18 31.984c.27 0 .52-.11.71-.29.18-.19.29-.45.29-.71s-.11-.521-.29-.71c-.38-.37-1.061-.37-1.42 0-.181.189-.29.45-.29.71s.1.52.29.71c.18.179.439.29.71.29zM42 23.984c.26 0 .52-.11.71-.29.18-.19.29-.45.29-.71s-.11-.521-.29-.71c-.38-.37-1.04-.37-1.42 0-.181.189-.29.439-.29.71 0 .27.109.52.29.71.189.179.439.29.71.29zM0 27.52v31.125l20.354-15.657zM22.34 43.984l-20.8 16h56.92l-20.8-16z"/><path d="M7.902 30.986l13.747 10.998H38.35l13.747-10.998 6.992-5.286L54 20.962V8.984H41.135l-8.593-8c-1.385-1.289-3.698-1.29-5.085.001l-8.592 7.999H6v11.978L.91 25.7zM8 10.984h44v17.519l-14.351 11.48H22.351L8 28.503V19.1zM39.646 42.988L60 58.645V27.52z"/></g></svg>